<mxfile host="app.diagrams.net" modified="2024-01-17T13:59:50.614Z" agent="Mozilla/5.0 (Windows NT 10.0; Win64; x64) AppleWebKit/537.36 (KHTML, like Gecko) Chrome/120.0.0.0 Safari/537.36" version="22.1.20" etag="VuXhYNIJ7DtJrIccZ86y" type="github">
  <diagram name="PÃ¡gina-1" id="a3qc_uufavQ5hrOdgnRi">
    <mxGraphModel>
      <root>
        <mxCell id="0" />
        <mxCell id="1" parent="0" />
      </root>
    </mxGraphModel>
  </diagram>
</mxfile>
